# Blender 3.3.1
# www.blender.org
mtllib EnemyBullet.mtl
o 円錐
v 0.000000 -0.000000 -0.750000
v -0.750000 0.000000 0.000000
v 0.000000 -0.000000 0.750000
v 0.750000 -0.000000 0.000000
v -0.000000 -2.000000 0.000000
v -0.000000 0.000000 -0.750000
v 0.750000 0.000000 0.000000
v -0.000000 0.000000 0.750000
v -0.750000 0.000000 0.000000
v 0.000000 2.000000 0.000000
vn -0.6835 -0.2563 -0.6835
vn -0.6835 -0.2563 0.6835
vn -0.0000 1.0000 -0.0000
vn 0.6835 -0.2563 0.6835
vn 0.6835 -0.2563 -0.6835
vn 0.6835 0.2563 -0.6835
vn 0.6835 0.2563 0.6835
vn -0.0000 -1.0000 -0.0000
vn -0.6835 0.2563 0.6835
vn -0.6835 0.2563 -0.6835
vt 0.602746 0.400869
vt 0.000000 0.788348
vt 0.595881 0.052669
vt 0.404119 0.453538
vt 0.404119 0.400869
vt 0.205491 0.788348
vt 0.205491 0.453538
vt 0.205491 0.993839
vt 0.595881 0.000000
vt 0.000000 0.993839
vt 0.397254 0.052669
vt 0.794508 0.000000
vt 0.602746 0.801739
vt 0.404119 0.801739
vt 0.595881 0.400869
vt 0.794508 0.400869
vt 0.000000 0.788348
vt 0.794509 0.205491
vt 0.602746 0.453538
vt 0.205491 0.788348
vt 0.198627 0.348200
vt 0.794509 0.000000
vt 0.397254 0.400869
vt 1.000000 0.000000
vt 0.000000 0.348200
vt 1.000000 0.205491
vt 0.198627 0.400869
vt 0.801373 0.400869
vt 0.102746 0.400869
vt 0.397254 0.000000
vt 0.198627 0.000000
vt 0.801373 0.801739
s 0
usemtl マテリアル
f 1/1/1 5/13/1 2/4/1
f 2/5/2 5/14/2 3/7/2
f 1/2/3 2/6/3 3/8/3 4/10/3
f 3/9/4 5/15/4 4/11/4
f 4/12/5 5/16/5 1/3/5
f 6/17/6 10/29/6 7/20/6
f 7/21/7 10/30/7 8/23/7
f 6/18/8 7/22/8 8/24/8 9/26/8
f 8/25/9 10/31/9 9/27/9
f 9/28/10 10/32/10 6/19/10
